# xmcd
#
# Track frame offsets: 
#        150
#        17276
#        40974
#        57234
#        79910
#        91374
#        106375
#        122851
#        147001
#        192051
#        209813
#        241802
#        288978
#
# Disc length: 4220 seconds
#
# Revision: 0
# Processed by: cddbd v1.5.2PL0 Copyright (c) Steve Scherf et al.
# Submitted via: ExactAudioCopy v0.99pb4
#
DISCID=b2107a0d
DTITLE=Chris Isaak - 910426 Chicago
DYEAR=1991
DGENRE=
TTITLE0=Dancin
TTITLE1=Heart Shaped World
TTITLE2=Some Kind of Love
TTITLE3=Wicked Game
TTITLE4=Gone Ridin'
TTITLE5=Wild Love
TTITLE6=Don't make me Dream About You
TTITLE7=Diddly Diddly Daddy
TTITLE8=In the Heat of the Jungle
TTITLE9=Blue Hotel
TTITLE10=Caledonia
TTITLE11=Jack The Ripper and Co.
TTITLE12=Wild Thing
EXTD=
EXTT0=
EXTT1=
EXTT2=
EXTT3=
EXTT4=
EXTT5=
EXTT6=
EXTT7=
EXTT8=
EXTT9=
EXTT10=
EXTT11=
EXTT12=
PLAYORDER=
